<svg width="1822" height="874" viewBox="0 0 1822 874" fill="none" xmlns="http://www.w3.org/2000/svg">
<path d="M1199 355.5H1247.5V655C1247.5 709.4 1203.4 753.5 1149 753.5H1100.5V454C1100.5 399.6 1144.6 355.5 1199 355.5Z" stroke="black" style="stroke:black;stroke-opacity:1;" stroke-width="3"/>
<path d="M1383 355.5H1431.5V655C1431.5 709.4 1387.4 753.5 1333 753.5H1284.5V454C1284.5 399.6 1328.6 355.5 1383 355.5Z" stroke="black" style="stroke:black;stroke-opacity:1;" stroke-width="3"/>
<mask id="path-3-inside-1_2683_5218" fill="white">
<path d="M1065 655C1065 710.228 1020.23 755 965 755H818V632C818 576.772 862.772 532 918 532H1065V655ZM956.233 586.792C951.681 573.104 932.319 573.104 927.767 586.792L921.167 606.633C919.128 612.763 913.394 616.898 906.934 616.898H886.338C871.722 616.898 865.737 635.672 877.656 644.131L893.71 655.524C899.091 659.343 901.344 666.23 899.262 672.491L892.987 691.353C888.411 705.111 904.078 716.711 915.902 708.319L933.318 695.959C938.518 692.269 945.482 692.269 950.682 695.959L968.098 708.319C979.922 716.711 995.589 705.111 991.013 691.353L984.738 672.491C982.656 666.23 984.909 659.343 990.29 655.524L1006.34 644.131C1018.26 635.672 1012.28 616.898 997.662 616.898H977.066C970.606 616.898 964.872 612.763 962.833 606.633L956.233 586.792Z"/>
</mask>
<path d="M818 755H815V758H818V755ZM1065 532H1068V529H1065V532ZM956.233 586.792L953.387 587.739L953.387 587.739L956.233 586.792ZM927.767 586.792L930.613 587.739L930.613 587.739L927.767 586.792ZM921.167 606.633L918.32 605.686L918.32 605.686L921.167 606.633ZM906.934 616.898L906.934 619.898H906.934L906.934 616.898ZM886.338 616.898L886.338 613.898H886.338L886.338 616.898ZM877.656 644.131L875.92 646.577L875.92 646.577L877.656 644.131ZM893.71 655.524L895.446 653.078L895.446 653.078L893.71 655.524ZM899.262 672.491L902.108 673.438L902.108 673.438L899.262 672.491ZM892.987 691.353L890.141 690.406L890.141 690.406L892.987 691.353ZM915.902 708.319L914.166 705.873L914.166 705.873L915.902 708.319ZM933.318 695.959L935.055 698.405L935.055 698.405L933.318 695.959ZM950.682 695.959L948.945 698.405L948.945 698.405L950.682 695.959ZM968.098 708.319L969.834 705.873L969.834 705.873L968.098 708.319ZM991.013 691.353L993.859 690.406L993.859 690.406L991.013 691.353ZM984.738 672.491L981.892 673.438L981.892 673.438L984.738 672.491ZM990.29 655.524L988.554 653.078L988.554 653.078L990.29 655.524ZM1006.34 644.131L1008.08 646.577L1008.08 646.577L1006.34 644.131ZM997.662 616.898L997.662 613.898H997.662V616.898ZM977.066 616.898L977.066 619.898H977.066V616.898ZM962.833 606.633L965.68 605.686L965.68 605.686L962.833 606.633ZM1065 655H1062C1062 708.572 1018.57 752 965 752V755V758C1021.89 758 1068 711.885 1068 655H1065ZM965 755V752H818V755V758H965V755ZM818 755H821V632H818H815V755H818ZM818 632H821C821 578.428 864.428 535 918 535V532V529C861.115 529 815 575.115 815 632H818ZM918 532V535H1065V532V529H918V532ZM1065 532H1062V655H1065H1068V532H1065ZM956.233 586.792L959.08 585.845C953.617 569.42 930.383 569.42 924.92 585.845L927.767 586.792L930.613 587.739C934.255 576.789 949.745 576.789 953.387 587.739L956.233 586.792ZM927.767 586.792L924.92 585.845L918.32 605.686L921.167 606.633L924.014 607.58L930.613 587.739L927.767 586.792ZM921.167 606.633L918.32 605.686C916.689 610.59 912.102 613.898 906.934 613.898L906.934 616.898L906.934 619.898C914.686 619.898 921.567 614.935 924.014 607.58L921.167 606.633ZM906.934 616.898V613.898H886.338V616.898V619.898H906.934V616.898ZM886.338 616.898L886.338 613.898C868.799 613.898 861.617 636.426 875.92 646.577L877.656 644.131L879.393 641.684C869.857 634.917 874.645 619.898 886.338 619.898L886.338 616.898ZM877.656 644.131L875.92 646.577L891.974 657.971L893.71 655.524L895.446 653.078L879.393 641.684L877.656 644.131ZM893.71 655.524L891.974 657.971C896.278 661.026 898.081 666.536 896.415 671.544L899.262 672.491L902.108 673.438C904.607 665.925 901.903 657.661 895.446 653.078L893.71 655.524ZM899.262 672.491L896.415 671.544L890.141 690.406L892.987 691.353L895.834 692.299L902.108 673.438L899.262 672.491ZM892.987 691.353L890.141 690.406C884.649 706.915 903.45 720.836 917.639 710.766L915.902 708.319L914.166 705.873C904.707 712.586 892.173 703.306 895.834 692.299L892.987 691.353ZM915.902 708.319L917.639 710.766L935.055 698.405L933.318 695.959L931.582 693.513L914.166 705.873L915.902 708.319ZM933.318 695.959L935.055 698.405C939.214 695.453 944.786 695.453 948.945 698.405L950.682 695.959L952.418 693.513C946.179 689.084 937.821 689.084 931.582 693.513L933.318 695.959ZM950.682 695.959L948.945 698.405L966.361 710.766L968.098 708.319L969.834 705.873L952.418 693.513L950.682 695.959ZM968.098 708.319L966.361 710.766C980.55 720.836 999.351 706.915 993.859 690.406L991.013 691.353L988.166 692.299C991.827 703.306 979.293 712.586 969.834 705.873L968.098 708.319ZM991.013 691.353L993.859 690.406L987.585 671.544L984.738 672.491L981.892 673.438L988.166 692.299L991.013 691.353ZM984.738 672.491L987.585 671.544C985.919 666.536 987.722 661.026 992.026 657.971L990.29 655.524L988.554 653.078C982.097 657.661 979.393 665.925 981.892 673.438L984.738 672.491ZM990.29 655.524L992.026 657.971L1008.08 646.577L1006.34 644.131L1004.61 641.684L988.554 653.078L990.29 655.524ZM1006.34 644.131L1008.08 646.577C1022.38 636.426 1015.2 613.898 997.662 613.898L997.662 616.898L997.662 619.898C1009.35 619.898 1014.14 634.917 1004.61 641.684L1006.34 644.131ZM997.662 616.898V613.898H977.066V616.898V619.898H997.662V616.898ZM977.066 616.898L977.066 613.898C971.898 613.898 967.311 610.59 965.68 605.686L962.833 606.633L959.986 607.58C962.433 614.935 969.314 619.898 977.066 619.898L977.066 616.898ZM962.833 606.633L965.68 605.686L959.08 585.845L956.233 586.792L953.387 587.739L959.986 607.58L962.833 606.633Z" fill="black" style="fill:black;fill-opacity:1;" mask="url(#path-3-inside-1_2683_5218)"/>
<mask id="path-5-inside-2_2683_5218" fill="white">
<path d="M619 354C710.127 354 784 427.873 784 519V590C784 681.127 710.127 755 619 755H361V424C361 385.34 392.34 354 431 354H619ZM634.233 597.792C629.681 584.104 610.319 584.104 605.767 597.792L599.167 617.633C597.128 623.763 591.394 627.898 584.934 627.898H564.338C549.722 627.898 543.737 646.672 555.656 655.131L571.71 666.524C577.091 670.343 579.344 677.23 577.262 683.491L570.987 702.353C566.411 716.111 582.078 727.711 593.902 719.319L611.318 706.959C616.518 703.269 623.482 703.269 628.682 706.959L646.098 719.319C657.922 727.711 673.589 716.111 669.013 702.353L662.738 683.491C660.656 677.23 662.909 670.343 668.29 666.524L684.344 655.131C696.263 646.672 690.278 627.898 675.662 627.898H655.066C648.606 627.898 642.872 623.763 640.833 617.633L634.233 597.792Z"/>
</mask>
<path d="M361 755H358V758H361V755ZM431 354L431 351H431L431 354ZM634.233 597.792L631.387 598.739L631.387 598.739L634.233 597.792ZM605.767 597.792L608.613 598.739L608.613 598.739L605.767 597.792ZM599.167 617.633L596.32 616.686L596.32 616.686L599.167 617.633ZM584.934 627.898L584.934 630.898H584.934L584.934 627.898ZM564.338 627.898L564.338 624.898H564.338L564.338 627.898ZM555.656 655.131L553.92 657.577L553.92 657.577L555.656 655.131ZM571.71 666.524L573.446 664.078L573.446 664.078L571.71 666.524ZM577.262 683.491L580.108 684.438L580.108 684.438L577.262 683.491ZM570.987 702.353L568.141 701.406L568.141 701.406L570.987 702.353ZM593.902 719.319L592.166 716.873L592.166 716.873L593.902 719.319ZM611.318 706.959L613.055 709.405L613.055 709.405L611.318 706.959ZM628.682 706.959L626.945 709.405L626.945 709.405L628.682 706.959ZM646.098 719.319L647.834 716.873L647.834 716.873L646.098 719.319ZM669.013 702.353L671.859 701.406L671.859 701.406L669.013 702.353ZM662.738 683.491L659.892 684.438L659.892 684.438L662.738 683.491ZM668.29 666.524L666.554 664.078L666.554 664.078L668.29 666.524ZM684.344 655.131L686.08 657.577L686.08 657.577L684.344 655.131ZM675.662 627.898L675.662 624.898H675.662V627.898ZM655.066 627.898L655.066 630.898H655.066V627.898ZM640.833 617.633L643.68 616.686L643.68 616.686L640.833 617.633ZM619 354V357C708.47 357 781 429.53 781 519H784H787C787 426.216 711.784 351 619 351V354ZM784 519H781V590H784H787V519H784ZM784 590H781C781 679.47 708.47 752 619 752V755V758C711.784 758 787 682.784 787 590H784ZM619 755V752H361V755V758H619V755ZM361 755H364V424H361H358V755H361ZM361 424H364C364 386.997 393.997 357 431 357L431 354L431 351C390.683 351 358 383.683 358 424H361ZM431 354V357H619V354V351H431V354ZM634.233 597.792L637.08 596.845C631.617 580.42 608.383 580.42 602.92 596.845L605.767 597.792L608.613 598.739C612.255 587.789 627.745 587.789 631.387 598.739L634.233 597.792ZM605.767 597.792L602.92 596.845L596.32 616.686L599.167 617.633L602.014 618.58L608.613 598.739L605.767 597.792ZM599.167 617.633L596.32 616.686C594.689 621.59 590.102 624.898 584.934 624.898L584.934 627.898L584.934 630.898C592.686 630.898 599.567 625.935 602.014 618.58L599.167 617.633ZM584.934 627.898V624.898H564.338V627.898V630.898H584.934V627.898ZM564.338 627.898L564.338 624.898C546.799 624.898 539.617 647.426 553.92 657.577L555.656 655.131L557.393 652.684C547.857 645.917 552.645 630.898 564.338 630.898L564.338 627.898ZM555.656 655.131L553.92 657.577L569.974 668.971L571.71 666.524L573.446 664.078L557.393 652.684L555.656 655.131ZM571.71 666.524L569.974 668.971C574.278 672.026 576.081 677.536 574.415 682.544L577.262 683.491L580.108 684.438C582.607 676.925 579.903 668.661 573.446 664.078L571.71 666.524ZM577.262 683.491L574.415 682.544L568.141 701.406L570.987 702.353L573.834 703.299L580.108 684.438L577.262 683.491ZM570.987 702.353L568.141 701.406C562.649 717.915 581.45 731.836 595.639 721.766L593.902 719.319L592.166 716.873C582.707 723.586 570.173 714.306 573.834 703.299L570.987 702.353ZM593.902 719.319L595.639 721.766L613.055 709.405L611.318 706.959L609.582 704.513L592.166 716.873L593.902 719.319ZM611.318 706.959L613.055 709.405C617.214 706.453 622.786 706.453 626.945 709.405L628.682 706.959L630.418 704.513C624.179 700.084 615.821 700.084 609.582 704.513L611.318 706.959ZM628.682 706.959L626.945 709.405L644.361 721.766L646.098 719.319L647.834 716.873L630.418 704.513L628.682 706.959ZM646.098 719.319L644.361 721.766C658.55 731.836 677.351 717.915 671.859 701.406L669.013 702.353L666.166 703.299C669.827 714.306 657.293 723.586 647.834 716.873L646.098 719.319ZM669.013 702.353L671.859 701.406L665.585 682.544L662.738 683.491L659.892 684.438L666.166 703.299L669.013 702.353ZM662.738 683.491L665.585 682.544C663.919 677.536 665.722 672.026 670.026 668.971L668.29 666.524L666.554 664.078C660.097 668.661 657.393 676.925 659.892 684.438L662.738 683.491ZM668.29 666.524L670.026 668.971L686.08 657.577L684.344 655.131L682.607 652.684L666.554 664.078L668.29 666.524ZM684.344 655.131L686.08 657.577C700.383 647.426 693.201 624.898 675.662 624.898L675.662 627.898L675.662 630.898C687.355 630.898 692.143 645.917 682.607 652.684L684.344 655.131ZM675.662 627.898V624.898H655.066V627.898V630.898H675.662V627.898ZM655.066 627.898L655.066 624.898C649.898 624.898 645.311 621.59 643.68 616.686L640.833 617.633L637.986 618.58C640.433 625.935 647.314 630.898 655.066 630.898L655.066 627.898ZM640.833 617.633L643.68 616.686L637.08 596.845L634.233 597.792L631.387 598.739L637.986 618.58L640.833 617.633Z" fill="black" style="fill:black;fill-opacity:1;" mask="url(#path-5-inside-2_2683_5218)"/>
<path d="M1567 541.5H1615.5V655C1615.5 709.4 1571.4 753.5 1517 753.5H1468.5V640C1468.5 585.6 1512.6 541.5 1567 541.5Z" stroke="black" style="stroke:black;stroke-opacity:1;" stroke-width="3"/>
<path d="M1529.19 364.265C1533.22 352.139 1550.17 351.949 1554.61 363.696L1554.81 364.265L1561.41 384.106C1563.58 390.638 1569.57 395.112 1576.4 395.386L1577.07 395.398H1597.66C1610.61 395.398 1616.03 411.77 1605.97 419.544L1605.48 419.908L1589.42 431.302C1583.5 435.503 1581.02 443.078 1583.32 449.965L1589.59 468.826C1593.71 481.208 1579.61 491.649 1568.97 484.097L1551.55 471.735C1545.83 467.676 1538.17 467.676 1532.45 471.735L1515.03 484.097C1504.39 491.649 1490.29 481.208 1494.41 468.826L1500.68 449.965C1502.9 443.293 1500.65 435.975 1495.12 431.705L1494.58 431.302L1478.52 419.908C1467.8 412.295 1473.18 395.398 1486.34 395.398H1506.93C1513.82 395.398 1519.95 391.129 1522.37 384.732L1522.59 384.106L1529.19 364.265Z" stroke="black" style="stroke:black;stroke-opacity:1;" stroke-width="3"/>
<rect x="1820.5" y="1.5" width="871" height="1819" rx="144.5" transform="rotate(90 1820.5 1.5)" stroke="black" style="stroke:black;stroke-opacity:1;" stroke-width="3"/>
<rect x="1790.5" y="35.5" width="803" height="1753" rx="116.5" transform="rotate(90 1790.5 35.5)" stroke="black" style="stroke:black;stroke-opacity:1;" stroke-width="3"/>
<rect x="1693.5" y="318.5" width="74" height="236" rx="37" stroke="black" style="stroke:black;stroke-opacity:1;" stroke-width="3"/>
<circle cx="1731" cy="519" r="26.5" stroke="black" style="stroke:black;stroke-opacity:1;" stroke-width="3"/>
<circle cx="1731" cy="519" r="10.5" stroke="black" style="stroke:black;stroke-opacity:1;" stroke-width="3"/>
</svg>
