<svg width="1822" height="874" viewBox="0 0 1822 874" fill="none" xmlns="http://www.w3.org/2000/svg">
<rect width="1822" height="874" fill="#585858"/>
<path d="M1177 354.5H1225.5V654C1225.5 708.4 1181.4 752.5 1127 752.5H1078.5V453C1078.5 398.6 1122.6 354.5 1177 354.5Z" stroke="black" stroke-width="3"/>
<path d="M1361 354.5H1409.5V654C1409.5 708.4 1365.4 752.5 1311 752.5H1262.5V453C1262.5 398.6 1306.6 354.5 1361 354.5Z" stroke="black" stroke-width="3"/>
<mask id="path-3-inside-1_0_1" fill="white">
<path d="M1043 654C1043 709.228 998.228 754 943 754H796V631C796 575.772 840.772 531 896 531H1043V654ZM934.233 585.792C929.681 572.104 910.319 572.104 905.767 585.792L899.167 605.633C897.128 611.763 891.394 615.898 884.934 615.898H864.338C849.722 615.898 843.737 634.672 855.656 643.131L871.71 654.524C877.091 658.343 879.344 665.23 877.262 671.491L870.987 690.353C866.411 704.111 882.078 715.711 893.902 707.319L911.318 694.959C916.518 691.269 923.482 691.269 928.682 694.959L946.098 707.319C957.922 715.711 973.589 704.111 969.013 690.353L962.738 671.491C960.656 665.23 962.909 658.343 968.29 654.524L984.344 643.131C996.263 634.672 990.278 615.898 975.662 615.898H955.066C948.606 615.898 942.872 611.763 940.833 605.633L934.233 585.792Z"/>
</mask>
<path d="M796 754H793V757H796V754ZM1043 531H1046V528H1043V531ZM934.233 585.792L931.387 586.739L931.387 586.739L934.233 585.792ZM905.767 585.792L908.613 586.739L908.613 586.739L905.767 585.792ZM899.167 605.633L896.32 604.686L896.32 604.686L899.167 605.633ZM884.934 615.898L884.934 618.898H884.934L884.934 615.898ZM864.338 615.898L864.338 612.898H864.338L864.338 615.898ZM855.656 643.131L853.92 645.577L853.92 645.577L855.656 643.131ZM871.71 654.524L873.446 652.078L873.446 652.078L871.71 654.524ZM877.262 671.491L880.108 672.438L880.108 672.438L877.262 671.491ZM870.987 690.353L868.141 689.406L868.141 689.406L870.987 690.353ZM893.902 707.319L892.166 704.873L892.166 704.873L893.902 707.319ZM911.318 694.959L913.055 697.405L913.055 697.405L911.318 694.959ZM928.682 694.959L926.945 697.405L926.945 697.405L928.682 694.959ZM946.098 707.319L947.834 704.873L947.834 704.873L946.098 707.319ZM969.013 690.353L971.859 689.406L971.859 689.406L969.013 690.353ZM962.738 671.491L959.892 672.438L959.892 672.438L962.738 671.491ZM968.29 654.524L966.554 652.078L966.554 652.078L968.29 654.524ZM984.344 643.131L986.08 645.577L986.08 645.577L984.344 643.131ZM975.662 615.898L975.662 612.898H975.662V615.898ZM955.066 615.898L955.066 618.898H955.066V615.898ZM940.833 605.633L943.68 604.686L943.68 604.686L940.833 605.633ZM1043 654H1040C1040 707.572 996.572 751 943 751V754V757C999.885 757 1046 710.885 1046 654H1043ZM943 754V751H796V754V757H943V754ZM796 754H799V631H796H793V754H796ZM796 631H799C799 577.428 842.428 534 896 534V531V528C839.115 528 793 574.115 793 631H796ZM896 531V534H1043V531V528H896V531ZM1043 531H1040V654H1043H1046V531H1043ZM934.233 585.792L937.08 584.845C931.617 568.42 908.383 568.42 902.92 584.845L905.767 585.792L908.613 586.739C912.255 575.789 927.745 575.789 931.387 586.739L934.233 585.792ZM905.767 585.792L902.92 584.845L896.32 604.686L899.167 605.633L902.014 606.58L908.613 586.739L905.767 585.792ZM899.167 605.633L896.32 604.686C894.689 609.59 890.102 612.898 884.934 612.898L884.934 615.898L884.934 618.898C892.686 618.898 899.567 613.935 902.014 606.58L899.167 605.633ZM884.934 615.898V612.898H864.338V615.898V618.898H884.934V615.898ZM864.338 615.898L864.338 612.898C846.799 612.898 839.617 635.426 853.92 645.577L855.656 643.131L857.393 640.684C847.857 633.917 852.645 618.898 864.338 618.898L864.338 615.898ZM855.656 643.131L853.92 645.577L869.974 656.971L871.71 654.524L873.446 652.078L857.393 640.684L855.656 643.131ZM871.71 654.524L869.974 656.971C874.278 660.026 876.081 665.536 874.415 670.544L877.262 671.491L880.108 672.438C882.607 664.925 879.903 656.661 873.446 652.078L871.71 654.524ZM877.262 671.491L874.415 670.544L868.141 689.406L870.987 690.353L873.834 691.299L880.108 672.438L877.262 671.491ZM870.987 690.353L868.141 689.406C862.649 705.915 881.45 719.836 895.639 709.766L893.902 707.319L892.166 704.873C882.707 711.586 870.173 702.306 873.834 691.299L870.987 690.353ZM893.902 707.319L895.639 709.766L913.055 697.405L911.318 694.959L909.582 692.513L892.166 704.873L893.902 707.319ZM911.318 694.959L913.055 697.405C917.214 694.453 922.786 694.453 926.945 697.405L928.682 694.959L930.418 692.513C924.179 688.084 915.821 688.084 909.582 692.513L911.318 694.959ZM928.682 694.959L926.945 697.405L944.361 709.766L946.098 707.319L947.834 704.873L930.418 692.513L928.682 694.959ZM946.098 707.319L944.361 709.766C958.55 719.836 977.351 705.915 971.859 689.406L969.013 690.353L966.166 691.299C969.827 702.306 957.293 711.586 947.834 704.873L946.098 707.319ZM969.013 690.353L971.859 689.406L965.585 670.544L962.738 671.491L959.892 672.438L966.166 691.299L969.013 690.353ZM962.738 671.491L965.585 670.544C963.919 665.536 965.722 660.026 970.026 656.971L968.29 654.524L966.554 652.078C960.097 656.661 957.393 664.925 959.892 672.438L962.738 671.491ZM968.29 654.524L970.026 656.971L986.08 645.577L984.344 643.131L982.607 640.684L966.554 652.078L968.29 654.524ZM984.344 643.131L986.08 645.577C1000.38 635.426 993.201 612.898 975.662 612.898L975.662 615.898L975.662 618.898C987.355 618.898 992.143 633.917 982.607 640.684L984.344 643.131ZM975.662 615.898V612.898H955.066V615.898V618.898H975.662V615.898ZM955.066 615.898L955.066 612.898C949.898 612.898 945.311 609.59 943.68 604.686L940.833 605.633L937.986 606.58C940.433 613.935 947.314 618.898 955.066 618.898L955.066 615.898ZM940.833 605.633L943.68 604.686L937.08 584.845L934.233 585.792L931.387 586.739L937.986 606.58L940.833 605.633Z" fill="black" mask="url(#path-3-inside-1_0_1)"/>
<mask id="path-5-inside-2_0_1" fill="white">
<path d="M597 353C688.127 353 762 426.873 762 518V589C762 680.127 688.127 754 597 754H339V423C339 384.34 370.34 353 409 353H597ZM612.233 596.792C607.681 583.104 588.319 583.104 583.767 596.792L577.167 616.633C575.128 622.763 569.394 626.898 562.934 626.898H542.338C527.722 626.898 521.737 645.672 533.656 654.131L549.71 665.524C555.091 669.343 557.344 676.23 555.262 682.491L548.987 701.353C544.411 715.111 560.078 726.711 571.902 718.319L589.318 705.959C594.518 702.269 601.482 702.269 606.682 705.959L624.098 718.319C635.922 726.711 651.589 715.111 647.013 701.353L640.738 682.491C638.656 676.23 640.909 669.343 646.29 665.524L662.344 654.131C674.263 645.672 668.278 626.898 653.662 626.898H633.066C626.606 626.898 620.872 622.763 618.833 616.633L612.233 596.792Z"/>
</mask>
<path d="M339 754H336V757H339V754ZM409 353L409 350H409L409 353ZM612.233 596.792L609.387 597.739L609.387 597.739L612.233 596.792ZM583.767 596.792L586.613 597.739L586.613 597.739L583.767 596.792ZM577.167 616.633L574.32 615.686L574.32 615.686L577.167 616.633ZM562.934 626.898L562.934 629.898H562.934L562.934 626.898ZM542.338 626.898L542.338 623.898H542.338L542.338 626.898ZM533.656 654.131L531.92 656.577L531.92 656.577L533.656 654.131ZM549.71 665.524L551.446 663.078L551.446 663.078L549.71 665.524ZM555.262 682.491L558.108 683.438L558.108 683.438L555.262 682.491ZM548.987 701.353L546.141 700.406L546.141 700.406L548.987 701.353ZM571.902 718.319L570.166 715.873L570.166 715.873L571.902 718.319ZM589.318 705.959L591.055 708.405L591.055 708.405L589.318 705.959ZM606.682 705.959L604.945 708.405L604.945 708.405L606.682 705.959ZM624.098 718.319L625.834 715.873L625.834 715.873L624.098 718.319ZM647.013 701.353L649.859 700.406L649.859 700.406L647.013 701.353ZM640.738 682.491L637.892 683.438L637.892 683.438L640.738 682.491ZM646.29 665.524L644.554 663.078L644.554 663.078L646.29 665.524ZM662.344 654.131L664.08 656.577L664.08 656.577L662.344 654.131ZM653.662 626.898L653.662 623.898H653.662V626.898ZM633.066 626.898L633.066 629.898H633.066V626.898ZM618.833 616.633L621.68 615.686L621.68 615.686L618.833 616.633ZM597 353V356C686.47 356 759 428.53 759 518H762H765C765 425.216 689.784 350 597 350V353ZM762 518H759V589H762H765V518H762ZM762 589H759C759 678.47 686.47 751 597 751V754V757C689.784 757 765 681.784 765 589H762ZM597 754V751H339V754V757H597V754ZM339 754H342V423H339H336V754H339ZM339 423H342C342 385.997 371.997 356 409 356L409 353L409 350C368.683 350 336 382.683 336 423H339ZM409 353V356H597V353V350H409V353ZM612.233 596.792L615.08 595.845C609.617 579.42 586.383 579.42 580.92 595.845L583.767 596.792L586.613 597.739C590.255 586.789 605.745 586.789 609.387 597.739L612.233 596.792ZM583.767 596.792L580.92 595.845L574.32 615.686L577.167 616.633L580.014 617.58L586.613 597.739L583.767 596.792ZM577.167 616.633L574.32 615.686C572.689 620.59 568.102 623.898 562.934 623.898L562.934 626.898L562.934 629.898C570.686 629.898 577.567 624.935 580.014 617.58L577.167 616.633ZM562.934 626.898V623.898H542.338V626.898V629.898H562.934V626.898ZM542.338 626.898L542.338 623.898C524.799 623.898 517.617 646.426 531.92 656.577L533.656 654.131L535.393 651.684C525.857 644.917 530.645 629.898 542.338 629.898L542.338 626.898ZM533.656 654.131L531.92 656.577L547.974 667.971L549.71 665.524L551.446 663.078L535.393 651.684L533.656 654.131ZM549.71 665.524L547.974 667.971C552.278 671.026 554.081 676.536 552.415 681.544L555.262 682.491L558.108 683.438C560.607 675.925 557.903 667.661 551.446 663.078L549.71 665.524ZM555.262 682.491L552.415 681.544L546.141 700.406L548.987 701.353L551.834 702.299L558.108 683.438L555.262 682.491ZM548.987 701.353L546.141 700.406C540.649 716.915 559.45 730.836 573.639 720.766L571.902 718.319L570.166 715.873C560.707 722.586 548.173 713.306 551.834 702.299L548.987 701.353ZM571.902 718.319L573.639 720.766L591.055 708.405L589.318 705.959L587.582 703.513L570.166 715.873L571.902 718.319ZM589.318 705.959L591.055 708.405C595.214 705.453 600.786 705.453 604.945 708.405L606.682 705.959L608.418 703.513C602.179 699.084 593.821 699.084 587.582 703.513L589.318 705.959ZM606.682 705.959L604.945 708.405L622.361 720.766L624.098 718.319L625.834 715.873L608.418 703.513L606.682 705.959ZM624.098 718.319L622.361 720.766C636.55 730.836 655.351 716.915 649.859 700.406L647.013 701.353L644.166 702.299C647.827 713.306 635.293 722.586 625.834 715.873L624.098 718.319ZM647.013 701.353L649.859 700.406L643.585 681.544L640.738 682.491L637.892 683.438L644.166 702.299L647.013 701.353ZM640.738 682.491L643.585 681.544C641.919 676.536 643.722 671.026 648.026 667.971L646.29 665.524L644.554 663.078C638.097 667.661 635.393 675.925 637.892 683.438L640.738 682.491ZM646.29 665.524L648.026 667.971L664.08 656.577L662.344 654.131L660.607 651.684L644.554 663.078L646.29 665.524ZM662.344 654.131L664.08 656.577C678.383 646.426 671.201 623.898 653.662 623.898L653.662 626.898L653.662 629.898C665.355 629.898 670.143 644.917 660.607 651.684L662.344 654.131ZM653.662 626.898V623.898H633.066V626.898V629.898H653.662V626.898ZM633.066 626.898L633.066 623.898C627.898 623.898 623.311 620.59 621.68 615.686L618.833 616.633L615.986 617.58C618.433 624.935 625.314 629.898 633.066 629.898L633.066 626.898ZM618.833 616.633L621.68 615.686L615.08 595.845L612.233 596.792L609.387 597.739L615.986 617.58L618.833 616.633Z" fill="black" mask="url(#path-5-inside-2_0_1)"/>
<path d="M1545 540.5H1593.5V654C1593.5 708.4 1549.4 752.5 1495 752.5H1446.5V639C1446.5 584.6 1490.6 540.5 1545 540.5Z" stroke="black" stroke-width="3"/>
<path d="M1507.19 363.265C1511.22 351.139 1528.17 350.949 1532.61 362.696L1532.81 363.265L1539.41 383.106C1541.58 389.638 1547.57 394.112 1554.4 394.386L1555.07 394.398H1575.66C1588.61 394.398 1594.03 410.77 1583.97 418.544L1583.48 418.908L1567.42 430.302C1561.5 434.503 1559.02 442.078 1561.32 448.965L1567.59 467.826C1571.71 480.208 1557.61 490.649 1546.97 483.097L1529.55 470.735C1523.83 466.676 1516.17 466.676 1510.45 470.735L1493.03 483.097C1482.39 490.649 1468.29 480.208 1472.41 467.826L1478.68 448.965C1480.9 442.293 1478.65 434.975 1473.12 430.705L1472.58 430.302L1456.52 418.908C1445.8 411.295 1451.18 394.398 1464.34 394.398H1484.93C1491.82 394.398 1497.95 390.129 1500.37 383.732L1500.59 383.106L1507.19 363.265Z" stroke="black" stroke-width="3"/>
<rect x="1820.5" y="1.5" width="871" height="1819" rx="144.5" transform="rotate(90 1820.5 1.5)" stroke="black" stroke-width="3"/>
<rect x="1789.5" y="35.5" width="803" height="1753" rx="116.5" transform="rotate(90 1789.5 35.5)" stroke="black" stroke-width="3"/>
<rect x="1693.5" y="318.5" width="74" height="236" rx="37" stroke="black" stroke-width="3"/>
<circle cx="1731" cy="519" r="26.5" stroke="black" stroke-width="3"/>
<circle cx="1731" cy="519" r="10.5" stroke="black" stroke-width="3"/>
</svg>
