<svg width="1822" height="874" viewBox="0 0 1822 874" fill="none" xmlns="http://www.w3.org/2000/svg">
<path d="M1148 351.5H1196.5V651C1196.5 705.4 1152.4 749.5 1098 749.5H1049.5V450C1049.5 395.6 1093.6 351.5 1148 351.5Z" stroke="black" stroke-width="3"/>
<path d="M1332 351.5H1380.5V651C1380.5 705.4 1336.4 749.5 1282 749.5H1233.5V450C1233.5 395.6 1277.6 351.5 1332 351.5Z" stroke="black" stroke-width="3"/>
<mask id="path-3-inside-1_2683_5216" fill="white">
<path d="M1014 651C1014 706.228 969.228 751 914 751H767V628C767 572.772 811.772 528 867 528H1014V651ZM905.233 582.792C900.681 569.104 881.319 569.104 876.767 582.792L870.167 602.633C868.128 608.763 862.394 612.898 855.934 612.898H835.338C820.722 612.898 814.737 631.672 826.656 640.131L842.71 651.524C848.091 655.343 850.344 662.23 848.262 668.491L841.987 687.353C837.411 701.111 853.078 712.711 864.902 704.319L882.318 691.959C887.518 688.269 894.482 688.269 899.682 691.959L917.098 704.319C928.922 712.711 944.589 701.111 940.013 687.353L933.738 668.491C931.656 662.23 933.909 655.343 939.29 651.524L955.344 640.131C967.263 631.672 961.278 612.898 946.662 612.898H926.066C919.606 612.898 913.872 608.763 911.833 602.633L905.233 582.792Z"/>
</mask>
<path d="M767 751H764V754H767V751ZM1014 528H1017V525H1014V528ZM905.233 582.792L902.387 583.739L902.387 583.739L905.233 582.792ZM876.767 582.792L879.613 583.739L879.613 583.739L876.767 582.792ZM870.167 602.633L867.32 601.686L867.32 601.686L870.167 602.633ZM855.934 612.898L855.934 615.898H855.934L855.934 612.898ZM835.338 612.898L835.338 609.898H835.338L835.338 612.898ZM826.656 640.131L824.92 642.577L824.92 642.577L826.656 640.131ZM842.71 651.524L844.446 649.078L844.446 649.078L842.71 651.524ZM848.262 668.491L851.108 669.438L851.108 669.438L848.262 668.491ZM841.987 687.353L839.141 686.406L839.141 686.406L841.987 687.353ZM864.902 704.319L863.166 701.873L863.166 701.873L864.902 704.319ZM882.318 691.959L884.055 694.405L884.055 694.405L882.318 691.959ZM899.682 691.959L897.945 694.405L897.945 694.405L899.682 691.959ZM917.098 704.319L918.834 701.873L918.834 701.873L917.098 704.319ZM940.013 687.353L942.859 686.406L942.859 686.406L940.013 687.353ZM933.738 668.491L930.892 669.438L930.892 669.438L933.738 668.491ZM939.29 651.524L937.554 649.078L937.554 649.078L939.29 651.524ZM955.344 640.131L957.08 642.577L957.08 642.577L955.344 640.131ZM946.662 612.898L946.662 609.898H946.662V612.898ZM926.066 612.898L926.066 615.898H926.066V612.898ZM911.833 602.633L914.68 601.686L914.68 601.686L911.833 602.633ZM1014 651H1011C1011 704.572 967.572 748 914 748V751V754C970.885 754 1017 707.885 1017 651H1014ZM914 751V748H767V751V754H914V751ZM767 751H770V628H767H764V751H767ZM767 628H770C770 574.428 813.428 531 867 531V528V525C810.115 525 764 571.115 764 628H767ZM867 528V531H1014V528V525H867V528ZM1014 528H1011V651H1014H1017V528H1014ZM905.233 582.792L908.08 581.845C902.617 565.42 879.383 565.42 873.92 581.845L876.767 582.792L879.613 583.739C883.255 572.789 898.745 572.789 902.387 583.739L905.233 582.792ZM876.767 582.792L873.92 581.845L867.32 601.686L870.167 602.633L873.014 603.58L879.613 583.739L876.767 582.792ZM870.167 602.633L867.32 601.686C865.689 606.59 861.102 609.898 855.934 609.898L855.934 612.898L855.934 615.898C863.686 615.898 870.567 610.935 873.014 603.58L870.167 602.633ZM855.934 612.898V609.898H835.338V612.898V615.898H855.934V612.898ZM835.338 612.898L835.338 609.898C817.799 609.898 810.617 632.426 824.92 642.577L826.656 640.131L828.393 637.684C818.857 630.917 823.645 615.898 835.338 615.898L835.338 612.898ZM826.656 640.131L824.92 642.577L840.974 653.971L842.71 651.524L844.446 649.078L828.393 637.684L826.656 640.131ZM842.71 651.524L840.974 653.971C845.278 657.026 847.081 662.536 845.415 667.544L848.262 668.491L851.108 669.438C853.607 661.925 850.903 653.661 844.446 649.078L842.71 651.524ZM848.262 668.491L845.415 667.544L839.141 686.406L841.987 687.353L844.834 688.299L851.108 669.438L848.262 668.491ZM841.987 687.353L839.141 686.406C833.649 702.915 852.45 716.836 866.639 706.766L864.902 704.319L863.166 701.873C853.707 708.586 841.173 699.306 844.834 688.299L841.987 687.353ZM864.902 704.319L866.639 706.766L884.055 694.405L882.318 691.959L880.582 689.513L863.166 701.873L864.902 704.319ZM882.318 691.959L884.055 694.405C888.214 691.453 893.786 691.453 897.945 694.405L899.682 691.959L901.418 689.513C895.179 685.084 886.821 685.084 880.582 689.513L882.318 691.959ZM899.682 691.959L897.945 694.405L915.361 706.766L917.098 704.319L918.834 701.873L901.418 689.513L899.682 691.959ZM917.098 704.319L915.361 706.766C929.55 716.836 948.351 702.915 942.859 686.406L940.013 687.353L937.166 688.299C940.827 699.306 928.293 708.586 918.834 701.873L917.098 704.319ZM940.013 687.353L942.859 686.406L936.585 667.544L933.738 668.491L930.892 669.438L937.166 688.299L940.013 687.353ZM933.738 668.491L936.585 667.544C934.919 662.536 936.722 657.026 941.026 653.971L939.29 651.524L937.554 649.078C931.097 653.661 928.393 661.925 930.892 669.438L933.738 668.491ZM939.29 651.524L941.026 653.971L957.08 642.577L955.344 640.131L953.607 637.684L937.554 649.078L939.29 651.524ZM955.344 640.131L957.08 642.577C971.383 632.426 964.201 609.898 946.662 609.898L946.662 612.898L946.662 615.898C958.355 615.898 963.143 630.917 953.607 637.684L955.344 640.131ZM946.662 612.898V609.898H926.066V612.898V615.898H946.662V612.898ZM926.066 612.898L926.066 609.898C920.898 609.898 916.311 606.59 914.68 601.686L911.833 602.633L908.986 603.58C911.433 610.935 918.314 615.898 926.066 615.898L926.066 612.898ZM911.833 602.633L914.68 601.686L908.08 581.845L905.233 582.792L902.387 583.739L908.986 603.58L911.833 602.633Z" fill="black" mask="url(#path-3-inside-1_2683_5216)"/>
<mask id="path-5-inside-2_2683_5216" fill="white">
<path d="M568 350C659.127 350 733 423.873 733 515V586C733 677.127 659.127 751 568 751H310V420C310 381.34 341.34 350 380 350H568ZM583.233 593.792C578.681 580.104 559.319 580.104 554.767 593.792L548.167 613.633C546.128 619.763 540.394 623.898 533.934 623.898H513.338C498.722 623.898 492.737 642.672 504.656 651.131L520.71 662.524C526.091 666.343 528.344 673.23 526.262 679.491L519.987 698.353C515.411 712.111 531.078 723.711 542.902 715.319L560.318 702.959C565.518 699.269 572.482 699.269 577.682 702.959L595.098 715.319C606.922 723.711 622.589 712.111 618.013 698.353L611.738 679.491C609.656 673.23 611.909 666.343 617.29 662.524L633.344 651.131C645.263 642.672 639.278 623.898 624.662 623.898H604.066C597.606 623.898 591.872 619.763 589.833 613.633L583.233 593.792Z"/>
</mask>
<path d="M310 751H307V754H310V751ZM380 350L380 347H380L380 350ZM583.233 593.792L580.387 594.739L580.387 594.739L583.233 593.792ZM554.767 593.792L557.613 594.739L557.613 594.739L554.767 593.792ZM548.167 613.633L545.32 612.686L545.32 612.686L548.167 613.633ZM533.934 623.898L533.934 626.898H533.934L533.934 623.898ZM513.338 623.898L513.338 620.898H513.338L513.338 623.898ZM504.656 651.131L502.92 653.577L502.92 653.577L504.656 651.131ZM520.71 662.524L522.446 660.078L522.446 660.078L520.71 662.524ZM526.262 679.491L529.108 680.438L529.108 680.438L526.262 679.491ZM519.987 698.353L517.141 697.406L517.141 697.406L519.987 698.353ZM542.902 715.319L541.166 712.873L541.166 712.873L542.902 715.319ZM560.318 702.959L562.055 705.405L562.055 705.405L560.318 702.959ZM577.682 702.959L575.945 705.405L575.945 705.405L577.682 702.959ZM595.098 715.319L596.834 712.873L596.834 712.873L595.098 715.319ZM618.013 698.353L620.859 697.406L620.859 697.406L618.013 698.353ZM611.738 679.491L608.892 680.438L608.892 680.438L611.738 679.491ZM617.29 662.524L615.554 660.078L615.554 660.078L617.29 662.524ZM633.344 651.131L635.08 653.577L635.08 653.577L633.344 651.131ZM624.662 623.898L624.662 620.898H624.662V623.898ZM604.066 623.898L604.066 626.898H604.066V623.898ZM589.833 613.633L592.68 612.686L592.68 612.686L589.833 613.633ZM568 350V353C657.47 353 730 425.53 730 515H733H736C736 422.216 660.784 347 568 347V350ZM733 515H730V586H733H736V515H733ZM733 586H730C730 675.47 657.47 748 568 748V751V754C660.784 754 736 678.784 736 586H733ZM568 751V748H310V751V754H568V751ZM310 751H313V420H310H307V751H310ZM310 420H313C313 382.997 342.997 353 380 353L380 350L380 347C339.683 347 307 379.683 307 420H310ZM380 350V353H568V350V347H380V350ZM583.233 593.792L586.08 592.845C580.617 576.42 557.383 576.42 551.92 592.845L554.767 593.792L557.613 594.739C561.255 583.789 576.745 583.789 580.387 594.739L583.233 593.792ZM554.767 593.792L551.92 592.845L545.32 612.686L548.167 613.633L551.014 614.58L557.613 594.739L554.767 593.792ZM548.167 613.633L545.32 612.686C543.689 617.59 539.102 620.898 533.934 620.898L533.934 623.898L533.934 626.898C541.686 626.898 548.567 621.935 551.014 614.58L548.167 613.633ZM533.934 623.898V620.898H513.338V623.898V626.898H533.934V623.898ZM513.338 623.898L513.338 620.898C495.799 620.898 488.617 643.426 502.92 653.577L504.656 651.131L506.393 648.684C496.857 641.917 501.645 626.898 513.338 626.898L513.338 623.898ZM504.656 651.131L502.92 653.577L518.974 664.971L520.71 662.524L522.446 660.078L506.393 648.684L504.656 651.131ZM520.71 662.524L518.974 664.971C523.278 668.026 525.081 673.536 523.415 678.544L526.262 679.491L529.108 680.438C531.607 672.925 528.903 664.661 522.446 660.078L520.71 662.524ZM526.262 679.491L523.415 678.544L517.141 697.406L519.987 698.353L522.834 699.299L529.108 680.438L526.262 679.491ZM519.987 698.353L517.141 697.406C511.649 713.915 530.45 727.836 544.639 717.766L542.902 715.319L541.166 712.873C531.707 719.586 519.173 710.306 522.834 699.299L519.987 698.353ZM542.902 715.319L544.639 717.766L562.055 705.405L560.318 702.959L558.582 700.513L541.166 712.873L542.902 715.319ZM560.318 702.959L562.055 705.405C566.214 702.453 571.786 702.453 575.945 705.405L577.682 702.959L579.418 700.513C573.179 696.084 564.821 696.084 558.582 700.513L560.318 702.959ZM577.682 702.959L575.945 705.405L593.361 717.766L595.098 715.319L596.834 712.873L579.418 700.513L577.682 702.959ZM595.098 715.319L593.361 717.766C607.55 727.836 626.351 713.915 620.859 697.406L618.013 698.353L615.166 699.299C618.827 710.306 606.293 719.586 596.834 712.873L595.098 715.319ZM618.013 698.353L620.859 697.406L614.585 678.544L611.738 679.491L608.892 680.438L615.166 699.299L618.013 698.353ZM611.738 679.491L614.585 678.544C612.919 673.536 614.722 668.026 619.026 664.971L617.29 662.524L615.554 660.078C609.097 664.661 606.393 672.925 608.892 680.438L611.738 679.491ZM617.29 662.524L619.026 664.971L635.08 653.577L633.344 651.131L631.607 648.684L615.554 660.078L617.29 662.524ZM633.344 651.131L635.08 653.577C649.383 643.426 642.201 620.898 624.662 620.898L624.662 623.898L624.662 626.898C636.355 626.898 641.143 641.917 631.607 648.684L633.344 651.131ZM624.662 623.898V620.898H604.066V623.898V626.898H624.662V623.898ZM604.066 623.898L604.066 620.898C598.898 620.898 594.311 617.59 592.68 612.686L589.833 613.633L586.986 614.58C589.433 621.935 596.314 626.898 604.066 626.898L604.066 623.898ZM589.833 613.633L592.68 612.686L586.08 592.845L583.233 593.792L580.387 594.739L586.986 614.58L589.833 613.633Z" fill="black" mask="url(#path-5-inside-2_2683_5216)"/>
<path d="M1516 537.5H1564.5V651C1564.5 705.4 1520.4 749.5 1466 749.5H1417.5V636C1417.5 581.6 1461.6 537.5 1516 537.5Z" stroke="black" stroke-width="3"/>
<path d="M1478.19 360.265C1482.22 348.139 1499.17 347.949 1503.61 359.696L1503.81 360.265L1510.41 380.106C1512.58 386.638 1518.57 391.112 1525.4 391.386L1526.07 391.398H1546.66C1559.61 391.398 1565.03 407.77 1554.97 415.544L1554.48 415.908L1538.42 427.302C1532.5 431.503 1530.02 439.078 1532.32 445.965L1538.59 464.826C1542.71 477.208 1528.61 487.649 1517.97 480.097L1500.55 467.735C1494.83 463.676 1487.17 463.676 1481.45 467.735L1464.03 480.097C1453.39 487.649 1439.29 477.208 1443.41 464.826L1449.68 445.965C1451.9 439.293 1449.65 431.975 1444.12 427.705L1443.58 427.302L1427.52 415.908C1416.8 408.295 1422.18 391.398 1435.34 391.398H1455.93C1462.82 391.398 1468.95 387.129 1471.37 380.732L1471.59 380.106L1478.19 360.265Z" stroke="black" stroke-width="3"/>
<rect x="1820.5" y="1.5" width="871" height="1819" rx="144.5" transform="rotate(90 1820.5 1.5)" stroke="black" stroke-width="3"/>
<rect x="1789.5" y="35.5" width="803" height="1753" rx="116.5" transform="rotate(90 1789.5 35.5)" stroke="black" stroke-width="3"/>
<rect x="1693.5" y="318.5" width="74" height="236" rx="37" stroke="black" stroke-width="3"/>
<circle cx="1731" cy="519" r="26.5" stroke="black" stroke-width="3"/>
<circle cx="1731" cy="519" r="10.5" stroke="black" stroke-width="3"/>
</svg>
