<svg width="1289" height="434" viewBox="0 0 1289 434" fill="none" xmlns="http://www.w3.org/2000/svg">
<path d="M838 34.5H886.5V334C886.5 388.4 842.4 432.5 788 432.5H739.5V133C739.5 78.6 783.6 34.5 838 34.5Z" stroke="black" stroke-width="3"/>
<path d="M1022 34.5H1070.5V334C1070.5 388.4 1026.4 432.5 972 432.5H923.5V133C923.5 78.6 967.6 34.5 1022 34.5Z" stroke="black" stroke-width="3"/>
<mask id="path-3-inside-1_2683_5217" fill="white">
<path d="M704 334C704 389.228 659.228 434 604 434H457V311C457 255.772 501.772 211 557 211H704V334ZM595.233 265.792C590.681 252.104 571.319 252.104 566.767 265.792L560.167 285.633C558.128 291.763 552.394 295.898 545.934 295.898H525.338C510.722 295.898 504.737 314.672 516.656 323.131L532.71 334.524C538.091 338.343 540.344 345.23 538.262 351.491L531.987 370.353C527.411 384.111 543.078 395.711 554.902 387.319L572.318 374.959C577.518 371.269 584.482 371.269 589.682 374.959L607.098 387.319C618.922 395.711 634.589 384.111 630.013 370.353L623.738 351.491C621.656 345.23 623.909 338.343 629.29 334.524L645.344 323.131C657.263 314.672 651.278 295.898 636.662 295.898H616.066C609.606 295.898 603.872 291.763 601.833 285.633L595.233 265.792Z"/>
</mask>
<path d="M457 434H454V437H457V434ZM704 211H707V208H704V211ZM595.233 265.792L592.387 266.739L592.387 266.739L595.233 265.792ZM566.767 265.792L569.613 266.739L569.613 266.739L566.767 265.792ZM560.167 285.633L557.32 284.686L557.32 284.686L560.167 285.633ZM545.934 295.898L545.934 298.898H545.934L545.934 295.898ZM525.338 295.898L525.338 292.898H525.338L525.338 295.898ZM516.656 323.131L514.92 325.577L514.92 325.577L516.656 323.131ZM532.71 334.524L534.446 332.078L534.446 332.078L532.71 334.524ZM538.262 351.491L541.108 352.438L541.108 352.438L538.262 351.491ZM531.987 370.353L529.141 369.406L529.141 369.406L531.987 370.353ZM554.902 387.319L553.166 384.873L553.166 384.873L554.902 387.319ZM572.318 374.959L574.055 377.405L574.055 377.405L572.318 374.959ZM589.682 374.959L587.945 377.405L587.945 377.405L589.682 374.959ZM607.098 387.319L608.834 384.873L608.834 384.873L607.098 387.319ZM630.013 370.353L632.859 369.406L632.859 369.406L630.013 370.353ZM623.738 351.491L620.892 352.438L620.892 352.438L623.738 351.491ZM629.29 334.524L627.554 332.078L627.554 332.078L629.29 334.524ZM645.344 323.131L647.08 325.577L647.08 325.577L645.344 323.131ZM636.662 295.898L636.662 292.898H636.662V295.898ZM616.066 295.898L616.066 298.898H616.066V295.898ZM601.833 285.633L604.68 284.686L604.68 284.686L601.833 285.633ZM704 334H701C701 387.572 657.572 431 604 431V434V437C660.885 437 707 390.885 707 334H704ZM604 434V431H457V434V437H604V434ZM457 434H460V311H457H454V434H457ZM457 311H460C460 257.428 503.428 214 557 214V211V208C500.115 208 454 254.115 454 311H457ZM557 211V214H704V211V208H557V211ZM704 211H701V334H704H707V211H704ZM595.233 265.792L598.08 264.845C592.617 248.42 569.383 248.42 563.92 264.845L566.767 265.792L569.613 266.739C573.255 255.789 588.745 255.789 592.387 266.739L595.233 265.792ZM566.767 265.792L563.92 264.845L557.32 284.686L560.167 285.633L563.014 286.58L569.613 266.739L566.767 265.792ZM560.167 285.633L557.32 284.686C555.689 289.59 551.102 292.898 545.934 292.898L545.934 295.898L545.934 298.898C553.686 298.898 560.567 293.935 563.014 286.58L560.167 285.633ZM545.934 295.898V292.898H525.338V295.898V298.898H545.934V295.898ZM525.338 295.898L525.338 292.898C507.799 292.898 500.617 315.426 514.92 325.577L516.656 323.131L518.393 320.684C508.857 313.917 513.645 298.898 525.338 298.898L525.338 295.898ZM516.656 323.131L514.92 325.577L530.974 336.971L532.71 334.524L534.446 332.078L518.393 320.684L516.656 323.131ZM532.71 334.524L530.974 336.971C535.278 340.026 537.081 345.536 535.415 350.544L538.262 351.491L541.108 352.438C543.607 344.925 540.903 336.661 534.446 332.078L532.71 334.524ZM538.262 351.491L535.415 350.544L529.141 369.406L531.987 370.353L534.834 371.299L541.108 352.438L538.262 351.491ZM531.987 370.353L529.141 369.406C523.649 385.915 542.45 399.836 556.639 389.766L554.902 387.319L553.166 384.873C543.707 391.586 531.173 382.306 534.834 371.299L531.987 370.353ZM554.902 387.319L556.639 389.766L574.055 377.405L572.318 374.959L570.582 372.513L553.166 384.873L554.902 387.319ZM572.318 374.959L574.055 377.405C578.214 374.453 583.786 374.453 587.945 377.405L589.682 374.959L591.418 372.513C585.179 368.084 576.821 368.084 570.582 372.513L572.318 374.959ZM589.682 374.959L587.945 377.405L605.361 389.766L607.098 387.319L608.834 384.873L591.418 372.513L589.682 374.959ZM607.098 387.319L605.361 389.766C619.55 399.836 638.351 385.915 632.859 369.406L630.013 370.353L627.166 371.299C630.827 382.306 618.293 391.586 608.834 384.873L607.098 387.319ZM630.013 370.353L632.859 369.406L626.585 350.544L623.738 351.491L620.892 352.438L627.166 371.299L630.013 370.353ZM623.738 351.491L626.585 350.544C624.919 345.536 626.722 340.026 631.026 336.971L629.29 334.524L627.554 332.078C621.097 336.661 618.393 344.925 620.892 352.438L623.738 351.491ZM629.29 334.524L631.026 336.971L647.08 325.577L645.344 323.131L643.607 320.684L627.554 332.078L629.29 334.524ZM645.344 323.131L647.08 325.577C661.383 315.426 654.201 292.898 636.662 292.898L636.662 295.898L636.662 298.898C648.355 298.898 653.143 313.917 643.607 320.684L645.344 323.131ZM636.662 295.898V292.898H616.066V295.898V298.898H636.662V295.898ZM616.066 295.898L616.066 292.898C610.898 292.898 606.311 289.59 604.68 284.686L601.833 285.633L598.986 286.58C601.433 293.935 608.314 298.898 616.066 298.898L616.066 295.898ZM601.833 285.633L604.68 284.686L598.08 264.845L595.233 265.792L592.387 266.739L598.986 286.58L601.833 285.633Z" fill="black" mask="url(#path-3-inside-1_2683_5217)"/>
<mask id="path-5-inside-2_2683_5217" fill="white">
<path d="M258 33C349.127 33 423 106.873 423 198V269C423 360.127 349.127 434 258 434H0V103C0 64.3401 31.3401 33 70 33H258ZM273.233 276.792C268.681 263.104 249.319 263.104 244.767 276.792L238.167 296.633C236.128 302.763 230.394 306.898 223.934 306.898H203.338C188.722 306.898 182.737 325.672 194.656 334.131L210.71 345.524C216.091 349.343 218.344 356.23 216.262 362.491L209.987 381.353C205.411 395.111 221.078 406.711 232.902 398.319L250.318 385.959C255.518 382.269 262.482 382.269 267.682 385.959L285.098 398.319C296.922 406.711 312.589 395.111 308.013 381.353L301.738 362.491C299.656 356.23 301.909 349.343 307.29 345.524L323.344 334.131C335.263 325.672 329.278 306.898 314.662 306.898H294.066C287.606 306.898 281.872 302.763 279.833 296.633L273.233 276.792Z"/>
</mask>
<path d="M0 434H-3V437H0V434ZM70 33L70 30H70L70 33ZM273.233 276.792L270.387 277.739L270.387 277.739L273.233 276.792ZM244.767 276.792L247.613 277.739L247.613 277.739L244.767 276.792ZM238.167 296.633L235.32 295.686L235.32 295.686L238.167 296.633ZM223.934 306.898L223.934 309.898H223.934L223.934 306.898ZM203.338 306.898L203.338 303.898H203.338L203.338 306.898ZM194.656 334.131L192.92 336.577L192.92 336.577L194.656 334.131ZM210.71 345.524L212.446 343.078L212.446 343.078L210.71 345.524ZM216.262 362.491L219.108 363.438L219.108 363.438L216.262 362.491ZM209.987 381.353L207.141 380.406L207.141 380.406L209.987 381.353ZM232.902 398.319L231.166 395.873L231.166 395.873L232.902 398.319ZM250.318 385.959L252.055 388.405L252.055 388.405L250.318 385.959ZM267.682 385.959L265.945 388.405L265.945 388.405L267.682 385.959ZM285.098 398.319L286.834 395.873L286.834 395.873L285.098 398.319ZM308.013 381.353L310.859 380.406L310.859 380.406L308.013 381.353ZM301.738 362.491L298.892 363.438L298.892 363.438L301.738 362.491ZM307.29 345.524L305.554 343.078L305.554 343.078L307.29 345.524ZM323.344 334.131L325.08 336.577L325.08 336.577L323.344 334.131ZM314.662 306.898L314.662 303.898H314.662V306.898ZM294.066 306.898L294.066 309.898H294.066V306.898ZM279.833 296.633L282.68 295.686L282.68 295.686L279.833 296.633ZM258 33V36C347.47 36 420 108.53 420 198H423H426C426 105.216 350.784 30 258 30V33ZM423 198H420V269H423H426V198H423ZM423 269H420C420 358.47 347.47 431 258 431V434V437C350.784 437 426 361.784 426 269H423ZM258 434V431H0V434V437H258V434ZM0 434H3V103H0H-3V434H0ZM0 103H3C3 65.9969 32.9969 36 70 36L70 33L70 30C29.6832 30 -3 62.6832 -3 103H0ZM70 33V36H258V33V30H70V33ZM273.233 276.792L276.08 275.845C270.617 259.42 247.383 259.42 241.92 275.845L244.767 276.792L247.613 277.739C251.255 266.789 266.745 266.789 270.387 277.739L273.233 276.792ZM244.767 276.792L241.92 275.845L235.32 295.686L238.167 296.633L241.014 297.58L247.613 277.739L244.767 276.792ZM238.167 296.633L235.32 295.686C233.689 300.59 229.102 303.898 223.934 303.898L223.934 306.898L223.934 309.898C231.686 309.898 238.567 304.935 241.014 297.58L238.167 296.633ZM223.934 306.898V303.898H203.338V306.898V309.898H223.934V306.898ZM203.338 306.898L203.338 303.898C185.799 303.898 178.617 326.426 192.92 336.577L194.656 334.131L196.393 331.684C186.857 324.917 191.645 309.898 203.338 309.898L203.338 306.898ZM194.656 334.131L192.92 336.577L208.974 347.971L210.71 345.524L212.446 343.078L196.393 331.684L194.656 334.131ZM210.71 345.524L208.974 347.971C213.278 351.026 215.081 356.536 213.415 361.544L216.262 362.491L219.108 363.438C221.607 355.925 218.903 347.661 212.446 343.078L210.71 345.524ZM216.262 362.491L213.415 361.544L207.141 380.406L209.987 381.353L212.834 382.299L219.108 363.438L216.262 362.491ZM209.987 381.353L207.141 380.406C201.649 396.915 220.45 410.836 234.639 400.766L232.902 398.319L231.166 395.873C221.707 402.586 209.173 393.306 212.834 382.299L209.987 381.353ZM232.902 398.319L234.639 400.766L252.055 388.405L250.318 385.959L248.582 383.513L231.166 395.873L232.902 398.319ZM250.318 385.959L252.055 388.405C256.214 385.453 261.786 385.453 265.945 388.405L267.682 385.959L269.418 383.513C263.179 379.084 254.821 379.084 248.582 383.513L250.318 385.959ZM267.682 385.959L265.945 388.405L283.361 400.766L285.098 398.319L286.834 395.873L269.418 383.513L267.682 385.959ZM285.098 398.319L283.361 400.766C297.55 410.836 316.351 396.915 310.859 380.406L308.013 381.353L305.166 382.299C308.827 393.306 296.293 402.586 286.834 395.873L285.098 398.319ZM308.013 381.353L310.859 380.406L304.585 361.544L301.738 362.491L298.892 363.438L305.166 382.299L308.013 381.353ZM301.738 362.491L304.585 361.544C302.919 356.536 304.722 351.026 309.026 347.971L307.29 345.524L305.554 343.078C299.097 347.661 296.393 355.925 298.892 363.438L301.738 362.491ZM307.29 345.524L309.026 347.971L325.08 336.577L323.344 334.131L321.607 331.684L305.554 343.078L307.29 345.524ZM323.344 334.131L325.08 336.577C339.383 326.426 332.201 303.898 314.662 303.898L314.662 306.898L314.662 309.898C326.355 309.898 331.143 324.917 321.607 331.684L323.344 334.131ZM314.662 306.898V303.898H294.066V306.898V309.898H314.662V306.898ZM294.066 306.898L294.066 303.898C288.898 303.898 284.311 300.59 282.68 295.686L279.833 296.633L276.986 297.58C279.433 304.935 286.314 309.898 294.066 309.898L294.066 306.898ZM279.833 296.633L282.68 295.686L276.08 275.845L273.233 276.792L270.387 277.739L276.986 297.58L279.833 296.633Z" fill="black" mask="url(#path-5-inside-2_2683_5217)"/>
<path d="M1206 220.5H1254.5V334C1254.5 388.4 1210.4 432.5 1156 432.5H1107.5V319C1107.5 264.6 1151.6 220.5 1206 220.5Z" stroke="black" stroke-width="3"/>
<path d="M1168.19 43.2646C1172.22 31.1387 1189.17 30.9492 1193.61 42.6963L1193.81 43.2646L1200.41 63.1064C1202.58 69.6385 1208.57 74.1125 1215.4 74.3857L1216.07 74.3984H1236.66C1249.61 74.3984 1255.03 90.7703 1244.97 98.5439L1244.48 98.9082L1228.42 110.302C1222.5 114.503 1220.02 122.078 1222.32 128.965L1228.59 147.826C1232.71 160.208 1218.61 170.649 1207.97 163.097L1190.55 150.735C1184.83 146.676 1177.17 146.676 1171.45 150.735L1154.03 163.097C1143.39 170.649 1129.29 160.208 1133.41 147.826L1139.68 128.965C1141.9 122.293 1139.65 114.975 1134.12 110.705L1133.58 110.302L1117.52 98.9082C1106.8 91.2949 1112.18 74.3984 1125.34 74.3984H1145.93C1152.82 74.3984 1158.95 70.1293 1161.37 63.7324L1161.59 63.1064L1168.19 43.2646Z" stroke="black" stroke-width="3"/>
</svg>
