<svg width="200" height="189" viewBox="0 0 200 189" fill="none" xmlns="http://www.w3.org/2000/svg">
<path d="M89.0859 11.9629C92.5735 1.46275 107.427 1.46276 110.914 11.9629L124.25 52.1143C126.762 59.6781 133.836 64.7822 141.807 64.7822H184.249C195.45 64.7822 200.041 79.1669 190.911 85.6562L157.146 109.655C150.519 114.365 147.744 122.85 150.307 130.565L163.337 169.798C166.841 180.348 154.822 189.237 145.761 182.796L110.718 157.889C104.301 153.328 95.6994 153.328 89.2822 157.889L54.2393 182.796C45.1775 189.237 33.1591 180.348 36.6631 169.798L49.6934 130.565C52.2559 122.85 49.4811 114.365 42.8545 109.655L9.08887 85.6562C0.101322 79.2684 4.40923 65.2302 15.2305 64.793L15.751 64.7822H58.1934C66.1635 64.7822 73.2376 59.6781 75.75 52.1143L89.0859 11.9629Z" stroke="black" stroke-width="7"/>
</svg>
