<svg width="77" height="75" viewBox="0 0 77 75" fill="none" xmlns="http://www.w3.org/2000/svg">
<path d="M29.8766 6.28138C32.5308 -2.09319 44.3813 -2.09319 47.0355 6.28138L49.824 15.08C51.0093 18.8197 54.4804 21.3609 58.4035 21.3609H67.8947C76.5589 21.3609 80.2194 32.4031 73.271 37.5787L65.21 43.583C62.1338 45.8743 60.8479 49.8634 62.0068 53.5198L64.9943 62.9463C67.6347 71.2776 58.0477 78.1039 51.0386 72.8831L43.8323 67.5154C40.642 65.1391 36.2701 65.1391 33.0798 67.5154L25.8735 72.8831C18.8644 78.1039 9.27737 71.2776 11.9178 62.9463L14.9053 53.5198C16.0642 49.8634 14.7783 45.8743 11.7021 43.583L3.64114 37.5787C-3.30729 32.4031 0.353202 21.3609 9.01736 21.3609H18.5086C22.4317 21.3609 25.9028 18.8197 27.0881 15.08L29.8766 6.28138Z" fill="#B781A2"/>
</svg>
